# xmcd CD database file
#
# Track frame offsets:
#	150
#	20972
#	38027
#
# Disc length: 783 seconds
#
# Revision: 1
# Processed by: cddbd v1.5PL3 Copyright (c) Steve Scherf et al.
# Submitted via: CDex 1.51
#
DISCID=20030d03
DTITLE=安倍麻美 - 卒業
DYEAR=2004
DGENRE=JPop
TTITLE0=卒業
TTITLE1=ルージュ
TTITLE2=卒業 (Instrumental)
EXTD=YEAR: 2004
EXTT0=
EXTT1=
EXTT2=
PLAYORDER=
